<svg width="700" height="700" viewBox="0 0 700 600" xmlns="http://www.w3.org/2000/svg">
  <path d="M482.82 516.25H218.75l-35-402.5H518zm-247.98-17.5h231.7l31.324-367.5h-295.75z"/>
  <path d="M542.5 131.25h-385a8.75 8.75 0 0 1 0-17.5h385a8.75 8.75 0 0 1 0 17.5z"/>
  <path d="M426.65 131.25H273v-25.023a43.757 43.757 0 0 1 12.812-30.938 43.766 43.766 0 0 1 30.938-12.812h66.148a43.757 43.757 0 0 1 30.938 12.812 43.752 43.752 0 0 1 12.812 30.938zm-136.15-17.5h118.65v-7.523a26.409 26.409 0 0 0-7.738-18.512 26.408 26.408 0 0 0-18.512-7.739h-66.148a26.249 26.249 0 0 0-26.25 26.25zm59.32 70.52c4.832 0 8.75 4.832 8.75 8.75V437.5c0 4.832-3.918 8.75-8.75 8.75s-8.75-4.832-8.75-8.75V193.02a8.75 8.75 0 0 1 8.75-8.75zm-68.07 0c4.832 0 8.75 4.832 8.75 8.75V437.5c0 4.832-3.918 8.75-8.75 8.75s-8.75-4.832-8.75-8.75V193.02a8.75 8.75 0 0 1 8.75-8.75zm136.15 0c4.832 0 8.75 4.832 8.75 8.75V437.5a8.75 8.75 0 0 1-8.75 8.75c-4.832 0-8.75-4.832-8.75-8.75V193.02a8.75 8.75 0 0 1 8.75-8.75z"/>
</svg>
