<svg width="16" height="16" viewBox="0 0 16 16" fill="none" xmlns="http://www.w3.org/2000/svg">
<path d="M11.6302 0.726672L1.50464 10.8527C1.47386 10.8833 1.45109 10.9211 1.43845 10.9627L0.0109496 15.6591C-0.0167344 15.7524 0.00898242 15.8534 0.0778423 15.9222C0.146562 15.991 0.247603 16.0167 0.340912 15.9891L5.03605 14.5611H5.03619C5.07764 14.5485 5.11544 14.5257 5.14608 14.4949L15.2724 4.36929C15.7485 3.89343 16.011 3.24474 15.9996 2.57172C15.9915 1.89223 15.7166 1.24311 15.2342 0.764616C14.2308 -0.239923 12.6139 -0.25694 11.6302 0.727093L11.6302 0.726672ZM11.3208 1.786L12.5795 3.04475L3.35256 12.272L2.09385 11.0133L11.3208 1.786ZM0.663117 15.3362L0.999964 14.2281L1.7712 14.9994L0.663117 15.3362ZM2.34608 14.8241L1.17476 13.6539L1.83159 11.4998L4.49938 14.1677L2.34608 14.8241ZM4.81967 14.0723L4.98605 13.9059L3.72537 12.6475L12.9523 3.42017L14.211 4.67892L4.81967 14.0723ZM14.8974 3.99346L14.2375 4.65356L14.588 4.30306L11.6955 1.41072L12.0049 1.10127C12.7818 0.324388 14.0623 0.341261 14.8596 1.13879V1.13865C15.2437 1.51936 15.4624 2.03594 15.4684 2.57674C15.4784 3.10697 15.2724 3.61838 14.8975 3.99347L14.8974 3.99346Z" fill="white"/>
</svg>
