<svg
                            class=""
                            width="20"
                            height="20"
                            viewBox="0 0 15 15"
                            fill="none"
                            xmlns="http://www.w3.org/2000/svg"
                        >
                            <path
                                d="M7.5 0C3.35759 0 0 3.28009 0 7.32689C0 11.3737 3.35759 14.6538 7.5 14.6538C11.6424 14.6538 15 11.3737 15 7.32689C15 3.28009 11.6424 0 7.5 0ZM7.5 13.7379C3.88125 13.7379 0.9375 10.8621 0.9375 7.32689C0.9375 3.79167 3.88125 0.915862 7.5 0.915862C11.1188 0.915862 14.0625 3.79167 14.0625 7.32689C14.0625 10.8621 11.1188 13.7379 7.5 13.7379Z"
                                fill="#ECC865"
                            />
                            <path
                                d="M8.1683 8.58245L8.42433 3.4353H6.57507L6.84272 8.58245H8.1683Z"
                                fill="#ECC865"
                            />
                            <path
                                d="M7.50563 9.15015C6.88924 9.15015 6.45941 9.58149 6.45941 10.1842C6.45941 10.7745 6.87805 11.2182 7.50563 11.2182C8.13333 11.2182 8.54106 10.7749 8.54106 10.1842C8.52893 9.58162 8.12149 9.15015 7.50563 9.15015V9.15015Z"
                                fill="#ECC865"
                            />
                        </svg>