<svg width="21" height="21" viewBox="0 0 21 21" fill="none" xmlns="http://www.w3.org/2000/svg">
<circle cx="10.5" cy="10.5" r="10.5" fill="#ECC865"/>
<path d="M9.70941 4.69922H11.5789L11.2241 11.8311H10.0803L9.70941 4.69922Z" fill="#4C757F" stroke="#4C757F"/>
<path d="M9.5 14.8612C9.5 14.5073 9.62416 14.2301 9.81354 14.0421C10.003 13.8541 10.2857 13.7275 10.6529 13.7275C11.018 13.7275 11.2897 13.8528 11.4722 14.0382C11.6558 14.2247 11.7804 14.5041 11.7888 14.8662C11.7876 15.2139 11.6686 15.4907 11.4851 15.6786C11.3024 15.8656 11.0265 15.9948 10.6529 15.9948C10.279 15.9948 9.99735 15.865 9.80974 15.6757C9.62098 15.4853 9.5 15.207 9.5 14.8612Z" fill="#4C757F" stroke="#4C757F"/>
</svg>
